<!DOCTYPE svg PUBLIC "-//W3C//DTD SVG 1.1//EN" "http://www.w3.org/Graphics/SVG/1.1/DTD/svg11.dtd">
<!-- Uploaded to: SVG Repo, www.svgrepo.com, Transformed by: SVG Repo Mixer Tools -->
<svg fill="#ffffff" height="800px" width="800px" version="1.1" id="Layer_1" xmlns="http://www.w3.org/2000/svg" xmlns:xlink="http://www.w3.org/1999/xlink" viewBox="0 0 480 480" xml:space="preserve" stroke="#ffffff">
<g id="SVGRepo_bgCarrier" stroke-width="0"/>
<g id="SVGRepo_tracerCarrier" stroke-linecap="round" stroke-linejoin="round"/>
<g id="SVGRepo_iconCarrier"> <g> <g> <g> <path d="M240,64c-97.048,0-176,78.952-176,176s78.952,176,176,176s176-78.952,176-176S337.048,64,240,64z M240,80 c17.064,0,35.336,27.376,46.216,72h-92.432C204.664,107.376,222.936,80,240,80z M289.632,168c3.56,19.04,5.792,40.56,6.216,64 H184.152c0.424-23.44,2.656-44.96,6.216-64H289.632z M97.312,168H128c4.424,0,8-3.576,8-8s-3.576-8-8-8h-21.488 c22.632-34.208,58.016-59.216,99.352-68.248C193.648,99.104,183.72,122.72,177.096,152H160c-4.424,0-8,3.576-8,8s3.576,8,8,8 h13.896c-3.392,19.504-5.352,41.064-5.736,64H80.408C81.552,209.064,87.48,187.416,97.312,168z M80.408,248h87.752 c0.384,22.936,2.352,44.496,5.736,64H97.312C87.472,292.584,81.544,270.936,80.408,248z M106.512,328h70.584 c6.624,29.28,16.56,52.888,28.768,68.248C164.528,387.216,129.144,362.208,106.512,328z M240,400 c-17.064,0-35.336-27.376-46.216-72H208c4.424,0,8-3.576,8-8s-3.576-8-8-8h-17.632c-3.56-19.04-5.792-40.56-6.216-64H295.84 c-0.424,23.44-2.656,44.96-6.216,64H240c-4.424,0-8,3.576-8,8s3.576,8,8,8h46.216C275.344,372.624,257.064,400,240,400z M274.136,396.248c12.216-15.352,22.144-38.968,28.768-68.248h70.584C350.856,362.208,315.472,387.216,274.136,396.248z M399.6,232H368c-4.424,0-8,3.576-8,8s3.576,8,8,8h31.592c-1.144,22.936-7.072,44.584-16.904,64h-76.584 c3.392-19.504,5.352-41.064,5.736-64H336c4.424,0,8-3.576,8-8s-3.576-8-8-8h-24.152c-0.384-22.936-2.352-44.496-5.736-64h76.584 C392.536,187.416,398.456,209.064,399.6,232z M302.904,152c-6.624-29.28-16.552-52.888-28.768-68.248 c41.336,9.032,76.72,34.04,99.352,68.248H302.904z"/> <path d="M444.92,353.696c-1.944-1.512-4.48-2.072-6.856-1.456l-32,8c-4.288,1.072-6.896,5.416-5.824,9.696 c1.064,4.288,5.424,6.896,9.696,5.824l10.008-2.496C377.728,430.208,311.176,464,240,464c-75.344,0-145.2-37.552-186.872-100.456 c-2.448-3.68-7.416-4.688-11.096-2.248c-3.68,2.448-4.688,7.408-2.248,11.096C84.432,439.776,159.272,480,240,480 c75.808,0,146.728-35.768,192-96.112V392c0,4.424,3.576,8,8,8s8-3.576,8-8v-32C448,357.536,446.864,355.208,444.92,353.696z"/> <path d="M41.936,127.76l32-8c4.288-1.072,6.896-5.416,5.824-9.696c-1.072-4.296-5.424-6.92-9.696-5.824l-10.008,2.496 C102.272,49.792,168.824,16,240,16c75.344,0,145.2,37.552,186.872,100.456c1.536,2.32,4.088,3.576,6.68,3.576 c1.512,0,3.056-0.432,4.416-1.328c3.68-2.448,4.688-7.408,2.248-11.096C395.568,40.224,320.728,0,240,0 C164.192,0,93.272,35.768,48,96.112V88c0-4.424-3.576-8-8-8s-8,3.576-8,8v32c0,2.464,1.136,4.792,3.08,6.304 C36.496,127.416,38.232,128,40,128C40.648,128,41.296,127.92,41.936,127.76z"/> </g> </g> </g> </g>
</svg>